<svg xmlns="http://www.w3.org/2000/svg">  
    <symbol id="certificado" viewBox="0 0 45 36">
<path fill-rule="evenodd" clip-rule="evenodd" d="M40 3.5H5C4.17157 3.5 3.5 4.17157 3.5 5V31C3.5 31.8284 4.17157 32.5 5 32.5H40C40.8284 32.5 41.5 31.8284 41.5 31V5C41.5 4.17157 40.8284 3.5 40 3.5ZM45 5C45 2.23858 42.7614 0 40 0H5C2.23857 0 0 2.23858 0 5V31C0 33.7614 2.23857 36 5 36H40C42.7614 36 45 33.7614 45 31V5ZM26.9892 8.35482C25.6672 7.47148 24.113 7 22.523 7C20.3917 7.00238 18.3483 7.85011 16.8412 9.3572C15.3341 10.8643 14.4864 12.9077 14.484 15.039C14.484 16.629 14.9555 18.1832 15.8388 19.5052C16.7222 20.8272 17.9777 21.8576 19.4466 22.4661C20.9155 23.0745 22.5319 23.2337 24.0913 22.9235C25.6508 22.6133 27.0832 21.8477 28.2074 20.7234C29.3317 19.5992 30.0974 18.1667 30.4075 16.6073C30.7177 15.0479 30.5585 13.4315 29.9501 11.9626C29.3416 10.4937 28.3112 9.23815 26.9892 8.35482ZM20.037 15.838L18.611 14.448C18.5129 14.3524 18.4436 14.2311 18.411 14.098C18.3785 13.9649 18.384 13.8253 18.4269 13.6952C18.4699 13.5651 18.5486 13.4497 18.6539 13.3621C18.7593 13.2746 18.8872 13.2184 19.023 13.2L20.993 12.914L21.874 11.129C21.9345 11.007 22.0278 10.9042 22.1436 10.8324C22.2593 10.7606 22.3928 10.7226 22.529 10.7226C22.6652 10.7226 22.7987 10.7606 22.9144 10.8324C23.0302 10.9042 23.1235 11.007 23.184 11.129L24.065 12.914L26.035 13.2C26.1696 13.2204 26.2958 13.2779 26.3995 13.3662C26.5031 13.4544 26.5801 13.5699 26.6216 13.6995C26.6632 13.8291 26.6678 13.9678 26.6348 14.0998C26.6018 14.2319 26.5326 14.3521 26.435 14.447L25.01 15.837L25.347 17.8C25.3699 17.9346 25.3548 18.0728 25.3033 18.1992C25.2517 18.3256 25.1659 18.4351 25.0555 18.5153C24.945 18.5955 24.8143 18.6432 24.6782 18.6531C24.542 18.6629 24.4058 18.6345 24.285 18.571L22.523 17.645L20.761 18.571C20.6403 18.6341 20.5043 18.6623 20.3685 18.6523C20.2326 18.6424 20.1022 18.5947 19.9919 18.5147C19.8817 18.4347 19.7959 18.3255 19.7444 18.1994C19.6928 18.0733 19.6774 17.9353 19.7 17.801L20.037 15.838ZM14.688 20.403L12.116 25.919C12.0571 26.0497 12.0379 26.1948 12.0607 26.3364C12.0836 26.4779 12.1475 26.6096 12.2445 26.7151C12.3415 26.8207 12.4674 26.8954 12.6065 26.9301C12.7456 26.9647 12.8918 26.9577 13.027 26.91L16.059 25.81L16.286 25.916L17.386 28.948C17.4355 29.0838 17.5241 29.2018 17.6407 29.2872C17.7572 29.3726 17.8965 29.4215 18.0408 29.4278C18.1852 29.4341 18.3281 29.3975 18.4517 29.3226C18.5752 29.2477 18.6738 29.1379 18.735 29.007L20.888 24.39C19.6412 24.1715 18.4507 23.7063 17.386 23.0217C16.3214 22.337 15.4041 21.4467 14.688 20.403ZM30.357 20.403L32.931 25.919C32.9928 26.0502 33.0142 26.1967 32.9926 26.3401C32.971 26.4834 32.9073 26.6171 32.8096 26.7242C32.712 26.8313 32.5847 26.907 32.4439 26.9417C32.3032 26.9764 32.1553 26.9685 32.019 26.919L28.987 25.819L28.76 25.925L27.66 28.957C27.6105 29.0927 27.5219 29.2108 27.4053 29.2962C27.2888 29.3816 27.1495 29.4305 27.0052 29.4368C26.8608 29.4431 26.7179 29.4065 26.5943 29.3316C26.4708 29.2567 26.3722 29.1469 26.311 29.016L24.158 24.399C25.4053 24.1793 26.5961 23.7126 27.6607 23.0264C28.7252 22.3402 29.6419 21.4483 30.357 20.403Z" />
     </symbol>   
    <symbol id="clock" viewBox="0 0 384 384">
      <path d="M343.594 101.04c-7.953 3.848-11.28 13.418-7.434 21.367C346.672 144.12 352 167.527 352 192c0 88.223-71.777 160-160 160S32 280.223 32 192 103.777 32 192 32c36.56 0 70.902 11.938 99.328 34.52 6.895 5.504 16.977 4.352 22.48-2.566s4.352-16.984-2.57-22.48C277.586 14.727 235.238 0 192 0 86.137 0 0 86.137 0 192s86.137 192 192 192 192-86.137 192-192c0-29.336-6.406-57.45-19.04-83.527-3.84-7.97-13.44-11.3-21.367-7.434zM192 64a16.01 16.01 0 0 0-16 16v112a16.01 16.01 0 0 0 16 16h80a16.01 16.01 0 0 0 16-16 16.01 16.01 0 0 0-16-16h-64V80a16.01 16.01 0 0 0-16-16zm0 0"/>    
    </symbol> 
    <symbol id="calendar" viewBox="0 0 512 512">
      <circle cx="386" cy="210" r="20"/><path d="M432 40h-26V20c0-11.046-8.954-20-20-20s-20 8.954-20 20v20h-91V20c0-11.046-8.954-20-20-20s-20 8.954-20 20v20h-90V20c0-11.046-8.954-20-20-20s-20 8.954-20 20v20H80C35.888 40 0 75.888 0 120v312c0 44.112 35.888 80 80 80h153c11.046 0 20-8.954 20-20s-8.954-20-20-20H80c-22.056 0-40-17.944-40-40V120c0-22.056 17.944-40 40-40h25v20c0 11.046 8.954 20 20 20s20-8.954 20-20V80h90v20c0 11.046 8.954 20 20 20s20-8.954 20-20V80h91v20c0 11.046 8.954 20 20 20s20-8.954 20-20V80h26c22.056 0 40 17.944 40 40v114c0 11.046 8.954 20 20 20s20-8.954 20-20V120c0-44.112-35.888-80-80-80zm-41 230c-66.72 0-121 54.28-121 121s54.28 121 121 121 121-54.28 121-121-54.28-121-121-121zm0 202c-44.663 0-81-36.336-81-81s36.337-81 81-81 81 36.336 81 81-36.337 81-81 81zm29-101h-9v-21c0-11.046-8.954-20-20-20s-20 8.954-20 20v41c0 11.046 8.954 20 20 20h29c11.046 0 20-8.954 20-20s-8.954-20-20-20z"/><circle cx="299" cy="210" r="20"/><circle cx="212" cy="297" r="20"/><circle cx="125" cy="210" r="20"/><circle cx="125" cy="297" r="20"/><circle cx="125" cy="384" r="20"/><circle cx="212" cy="384" r="20"/><circle cx="212" cy="210" r="20"/>
   </symbol>  
    <symbol id="day" viewBox="-6 0 512 512">
       <path d="M227.656 357.508a15.13 15.13 0 0 0 10.691 4.426 15.11 15.11 0 0 0 10.688-4.426l53.973-53.973a15.12 15.12 0 0 0 0-21.383c-5.902-5.902-15.477-5.902-21.38 0l-43.28 43.28-19.734-19.734a15.13 15.13 0 0 0-21.383 0c-5.906 5.902-5.902 15.477 0 21.383zm22.464 82.336c66.176 0 120.012-53.84 120.012-120.016S316.297 199.816 250.12 199.816s-120.016 53.836-120.016 120.012 53.84 120.016 120.016 120.016zm0-209.793c49.504 0 89.777 40.273 89.777 89.777s-40.273 89.78-89.777 89.78-89.78-40.277-89.78-89.78 40.277-89.777 89.78-89.777zM451.344 32.2H423.77V15.117C423.77 6.77 417 0 408.652 0s-15.117 6.77-15.117 15.117V32.2h-29.707V15.117C363.828 6.77 357.06 0 348.707 0A15.11 15.11 0 0 0 333.6 15.117V32.2H166.652V15.117C166.652 6.77 159.883 0 151.53 0a15.12 15.12 0 0 0-15.117 15.117V32.2h-29.707V15.117A15.12 15.12 0 0 0 91.586 0 15.12 15.12 0 0 0 76.47 15.117V32.2H48.9C21.934 32.2 0 54.125 0 81.086V463.1C0 490.066 21.934 512 48.9 512h402.453c26.96 0 48.9-21.934 48.9-48.9V81.086c0-26.96-21.934-48.895-48.9-48.895zm18.652 430.918c0 10.285-8.367 18.656-18.652 18.656H48.9c-10.285 0-18.656-8.37-18.656-18.656v-305.2h439.762zM30.234 81.086A18.68 18.68 0 0 1 48.89 62.43h27.58v17.074c0 8.348 6.77 15.117 15.12 15.117a15.12 15.12 0 0 0 15.117-15.117V62.43h29.707v17.074c0 8.348 6.77 15.117 15.12 15.117a15.12 15.12 0 0 0 15.117-15.117V62.43H333.6v17.074c0 8.348 6.77 15.117 15.12 15.117a15.12 15.12 0 0 0 15.117-15.117V62.43h29.707v17.074c0 8.348 6.77 15.117 15.117 15.117s15.12-6.77 15.12-15.117V62.43h27.57c10.28 0 18.65 8.367 18.65 18.656v46.574H30.234zm0 0"/>
    </symbol>  
     
</svg>