<svg xmlns="http://www.w3.org/2000/svg">  
    <symbol id="email" viewBox="0 0 80.239 73.05">
         <g   data-name="Grupo 1102" transform="translate(-282 -4808.188)">
                <rect id="Rectángulo_743" data-name="Rectángulo 743" width="49.672" height="42.03" rx="6" transform="translate(297.639 4808.188)" fill="#2a355b"/>
                <rect id="Rectángulo_742" data-name="Rectángulo 742" width="63.427" height="52.728" rx="6" transform="translate(290.451 4811.373)" fill="#313d6a"/>
                <rect id="Rectángulo_741" data-name="Rectángulo 741" width="80.239" height="64.955" rx="6" transform="translate(282 4816.282)" fill="#344273"/>
                <path id="Rectángulo_745" data-name="Rectángulo 745" d="M6,0H63.54a6,6,0,0,1,6,6v7.507a0,0,0,0,1,0,0H0a0,0,0,0,1,0,0V6A6,6,0,0,1,6,0Z" transform="translate(287.783 4821.48)" fill="#f1f1f1"/>
                <rect id="Rectángulo_746" data-name="Rectángulo 746" width="61" height="2" rx="1" transform="translate(292 4829.521)" fill="#e2e2e2"/>
                <rect id="Rectángulo_747" data-name="Rectángulo 747" width="28" height="3" rx="1.5" transform="translate(292 4825.521)" fill="#e2e2e2"/>
        </g>
     </symbol> 
    <symbol id="classroom" viewBox="0 0 512.001 512.001">
        <path d="M186.932 56.05a8.03 8.03 0 0 0 0 16.06H253.1a50 50 0 0 1 7.076-16.06h-73.254zM487.727 0H143.362c-6.097 0-11.042 4.943-11.042 11.042v230.754c0 6.098 4.943 11.042 11.042 11.042h57.443l.112-22.083h-46.512V22.083h322.28v208.672h-114.3v22.083h125.35c6.098 0 11.042-4.943 11.042-11.042V11.042c0-6.1-4.944-11.042-11.04-11.042zM301.93 48.796c-19.437 0-35.194 15.757-35.194 35.194a35.11 35.11 0 0 0 10.897 25.447h48.593C332.935 103.03 337.122 94 337.122 84c.001-19.437-15.756-35.194-35.193-35.194zm155.708 29.04a16.88 16.88 0 0 0-6.846-3.92l-3.764-17.923a10.04 10.04 0 0 0-11.886-7.76c-4.038.848-6.992 4.015-7.77 7.816h-83.7c3.243 4.83 5.66 10.25 7.076 16.06h79.15l1.784 8.495-34.533 36.62-62.176 7.27H256.5c-21.954 0-40.073 17.858-40.184 39.983L215.687 288c-.06 11.935 8.454 18.265 16.9 18.307h.087c9.335-.001 16.928-7.547 16.975-16.896l.627-124.753c.052-1.945 1.658-3.486 3.602-3.46s3.505 1.6 3.505 3.556l-.37 257.017a56.3 56.3 0 0 1 20.245-4.7v-4.024a51.62 51.62 0 0 1-5.342-22.916c0-19.137 10.407-35.878 25.852-44.893v-58.002h8.8v53.913a51.72 51.72 0 0 1 17.306-2.975 51.63 51.63 0 0 1 23.45 5.615l-.065-186.53 59.988-7.013a16.98 16.98 0 0 0 10.382-5.216l40.724-43.183c6.436-6.823 6.12-17.57-.703-24.005zm-51.058 395.75c-.106-21.358-17.6-38.625-38.82-38.625H279.7c-21.3 0-38.714 17.328-38.82 38.626L240.676 512h14.487c0-22.3 18.217-40.124 40.124-40.124h58.302c22.066 0 40.122 17.974 40.122 40.124h13.062l-.194-38.416zm-82.718-117.46c-18.775 0-33.998 15.22-33.998 33.998 0 18.796 15.272 33.998 33.998 33.998 18.662 0 33.998-15.117 33.998-33.998.001-18.777-15.22-33.998-33.998-33.998zm-227.72 0c-18.734 0-33.998 15.175-33.998 33.998-.001 18.887 15.347 33.998 33.998 33.998 18.732 0 33.998-15.208 33.998-33.998.001-18.777-15.22-33.998-33.998-33.998zM353.6 483.33h-58.302c-15.834 0-28.67 12.835-28.67 28.67H382.26c0-15.834-12.836-28.67-28.67-28.67zm-230.36 0h-58.3c-15.834 0-28.67 12.835-28.67 28.67H151.9c0-15.834-12.836-28.67-28.67-28.67zm87.846-164.795c-7.815-1.775-15.585 3.126-17.356 10.938l-17.192 75.796-40.586 29.7H52.247c-21.2 0-38.713 17.24-38.82 38.626L13.233 512h11.573c0-22.15 18.052-40.124 40.124-40.124h58.302a39.86 39.86 0 0 1 20.446 5.62l.228-12.414 54.136-39.6a14.5 14.5 0 0 0 5.582-8.5l18.392-81.1a14.51 14.51 0 0 0-10.94-17.357z"/>
    </symbol> 
    <symbol id="about-us" viewBox="0 0 512 512">
        <path d="M255.32 193.293c23.312 0 42.278-18.977 42.278-42.303 0-23.313-18.966-42.277-42.278-42.277-23.32 0-42.3 18.965-42.3 42.277 0 23.326 18.972 42.303 42.3 42.303zm-49.996-102.4c18.725 0 33.958-15.24 33.958-33.97 0-18.72-15.233-33.947-33.958-33.947-18.718 0-33.946 15.23-33.946 33.947 0 18.73 15.228 33.97 33.946 33.97zM369.98 183.44c23.32 0 42.3-18.967 42.3-42.277 0-23.326-18.972-42.305-42.3-42.305s-42.278 18.98-42.278 42.305c0 23.3 18.966 42.277 42.278 42.277zm-227.974 0c23.313 0 42.28-18.967 42.28-42.277 0-23.326-18.966-42.305-42.28-42.305s-42.278 18.98-42.278 42.305c.001 23.3 18.966 42.277 42.278 42.277zm163.31-92.557c18.718 0 33.945-15.24 33.945-33.97 0-18.72-15.228-33.947-33.945-33.947-18.725 0-33.958 15.23-33.958 33.947 0 18.73 15.234 33.97 33.958 33.97zm-4.77 277.817c10.652-.938 16.937-6.607 20.23-18.22 0-.012-.003-.02-.003-.033V262.6c-.015-.055-.04-.104-.053-.158-6.724-30.115-38.913-44.127-65.978-44.4-20.38-.176-45.505 7.486-58.404 28.512a4 4 0 0 1-1.505 2.625c-2.084 3.88-3.773 8.174-4.97 12.92v87.906a4 4 0 0 1 .265.68c3.245 11.672 9.44 17.426 19.95 18.47v-52.85h8v168.082h33.24v-107.5h8v107.5h33.226V315.945h8V368.7zm68.997-161.075c-21.528 1.764-44.083 14.414-45.944 38.697-.015.2-.06.37-.1.553 2.06 3.957 3.63 8.154 4.716 12.55.347.594.56 1.273.56 2v89.014c0 .236-.03.465-.07.7.01.4-.016.783-.125 1.178-4.26 15.4-13.445 23.37-28.034 24.404v97.805h65.435v-107.5h8v107.5h33.214V306.44h8v52.854c10.534-1.035 16.735-6.787 19.976-18.47a3.87 3.87 0 0 1 .266-.684v-87.955c-8.533-33.802-39.176-46.75-65.896-44.56zm-187.12 145.2c-.05-.178-.068-.355-.092-.535a3.95 3.95 0 0 1-.465-1.834v-89.014c0-.008.002-.014.002-.02a3.98 3.98 0 0 1 .288-1.457c1.395-5.46 3.434-10.572 6.06-15.28-2.735-23.207-24.74-35.328-45.776-37.05-26.716-2.2-57.38 10.77-65.888 44.605v87.9a3.97 3.97 0 0 1 .266.68c3.246 11.674 9.444 17.428 19.963 18.47v-52.84h8v167.758h33.226V367.014h8v107.184h64.075v-97.035c-14.356-1.145-23.422-9.108-27.66-24.347z"/>
    </symbol> 
    <symbol id="date" viewBox="0 0 60 60">
     <path d="M50.3 11c-1.6-.8-11.3-6.1-16.7-9.4a4.84 4.84 0 0 0-7.2 0C21 4.9 11.3 10.2 9.8 11H0v49h60V11h-9.7zM32.2 3c.3.3.5.7.7 1.2v.1c.1.3.1.5.1.7 0 1.7-1.3 3-3 3s-3-1.3-3-3c0-.2 0-.4.1-.6v-.1c.1-.5.4-.9.7-1.2.5-.6 1.3-1 2.2-1s1.7.3 2.2.9zM25 4.8V5a4.95 4.95 0 0 0 5 5 4.95 4.95 0 0 0 5-5v-.2c3.6 2.1 8 4.6 11.1 6.2H13.9C17 9.4 21.4 6.9 25 4.8zM10 13h48v5H2v-5h8zM2 58V20h56v38H2z"/><circle cx="23" cy="28" r="1"/><circle cx="30" cy="28" r="1"/><circle cx="37" cy="28" r="1"/><circle cx="44" cy="28" r="1"/><circle cx="51" cy="28" r="1"/><circle cx="9" cy="36" r="1"/><circle cx="16" cy="36" r="1"/><circle cx="23" cy="36" r="1"/><circle cx="30" cy="36" r="1"/><circle cx="37" cy="36" r="1"/><circle cx="44" cy="36" r="1"/><circle cx="51" cy="36" r="1"/><circle cx="9" cy="43" r="1"/><circle cx="16" cy="43" r="1"/><circle cx="23" cy="43" r="1"/><circle cx="30" cy="43" r="1"/><circle cx="37" cy="43" r="1"/><circle cx="44" cy="43" r="1"/><circle cx="51" cy="43" r="1"/><circle cx="9" cy="51" r="1"/><circle cx="16" cy="51" r="1"/><circle cx="23" cy="51" r="1"/><circle cx="30" cy="51" r="1"/><circle cx="37" cy="51" r="1"/>    </symbol>
    <symbol id="coffe" viewBox="0 0 21.664 21.665">
        <path d="M2.756 20.725h2.95c.04.257.254.458.523.458h6.707c.27 0 .482-.2.523-.458h2.95a.9.9 0 0 0 .903-.903H1.854a.9.9 0 0 0 .902.903zm18.1-9.28c-.752-.6-1.8-.62-2.508-.542l.03-1.5H0c0 4.97.752 8.556 5.5 9.894h7.366c1.885-.53 3.135-1.418 3.964-2.6 1.806-.035 4.7-.746 4.82-3.24.047-1.092-.407-1.698-.796-2.012zM17.6 15.27c.346-.9.55-1.9.664-2.988.488-.08 1.33-.13 1.754.215.078.064.32.262.293.9-.057 1.292-1.66 1.726-2.7 1.872zM7.5 8.704s3.5-.257 1.896-3.208C8.1 3.127 8.393 1.737 10.04.48c0 0-5.398 1.375-2.25 5.63 1.155 1.854-.3 2.593-.3 2.593zm2.36-.236s2.804-.6 1.278-2.846c-.554-.978.2-1.327.2-1.327s-1.805.057-1.043 1.608c.6 1.247.43 1.955-.445 2.565z"/>
    </symbol> 
    <symbol id="location"  viewBox="0 0 54.757 54.757">
         <path d="M27.557 12a7.01 7.01 0 0 0-7 7 7.01 7.01 0 0 0 7 7 7.01 7.01 0 0 0 7-7 7.01 7.01 0 0 0-7-7zm0 12c-2.757 0-5-2.243-5-5s2.243-5 5-5 5 2.243 5 5-2.243 5-5 5zM40.94 5.617A19.05 19.05 0 0 0 27.38 0a19.05 19.05 0 0 0-13.56 5.617C7.117 12.32 6.284 24.93 12.016 32.57L27.38 54.757 42.72 32.6c5.755-7.67 4.922-20.28-1.78-26.983zm.16 25.814L27.38 51.243 13.64 31.4c-5.2-6.932-4.454-18.32 1.596-24.37A17.06 17.06 0 0 1 27.38 2a17.07 17.07 0 0 1 12.146 5.03c6.05 6.05 6.795 17.437 1.573 24.4z"/>
    </symbol>
    <symbol id="congresses" viewBox="0 0 278.15 442.86">
      <path d="M167 143.23l-25.5 25.36 10.76 71.92h95.53C242 215.5 228 182.16 228 182.16c-2.13-5.08-7.25-8.34-12.13-10.35l-33-15.2zm-28.43 25.35L113 143.23 97.16 156.6l-33 15.2c-4.9 2-9.7 5.05-12.13 10.35 0 0-14 33.32-19.77 58.35h95.53zm.42-25.83c25.18 0 59-31.46 59.54-84.23C198.87 21.9 181.43 0 139 0S79.05 21.9 79.42 58.52c.57 52.77 30.06 84.23 59.54 84.23zm-12-69.52c30.8 3.28 57.64-39.78 57.2-1.23-.26 23.1-21.67 57.94-45.23 57.94-24.72 0-41.78-29-45.23-57.92-3.74-31.4 53.9-24.25 33.26 1.2zm150.13 186.83a11 11 0 0 0-8.16-3.6H11a11 11 0 0 0-11 11c0 .35 0 .7.05 1.06L22.1 432.9a11 11 0 0 0 11 10h213.83a11 11 0 0 0 11-10c22.34-167.46 21.32-170.53 19.23-172.83zM183.67 387c-2.12 2.85-88.2 2.85-90.33 0-4-5.42-11.93-73.64-7.9-79.06 2.12-2.85 104-2.85 106.15 0 3.23 4.35-4 73.78-7.93 79.06z"/>
    </symbol>
    <symbol id="consulting"  viewBox="0 0 99 55.729">
        <path d="M77.698 15.75h1.636a4.85 4.85 0 0 1 4.846 4.846v7.612a1.41 1.41 0 0 1-.646 1.194 1.97 1.97 0 0 0-.888 1.656v7.33c-.003.894.507 1.7 1.312 2.1a57.7 57.7 0 0 1 10.439 6.7 1.69 1.69 0 0 1 .606 1.312v5.2a2 2 0 1 0 4 0v-5.207a5.64 5.64 0 0 0-2.08-4.4 61.48 61.48 0 0 0-10.3-6.724v-5.4c.982-1.012 1.533-2.366 1.535-3.776V20.6c-.006-4.882-3.962-8.84-8.844-8.844h-1.636c-4.882.005-8.838 3.962-8.844 8.844v7.612c.002 1.4.553 2.764 1.535 3.776v2.6a2 2 0 1 0 4 0v-3.513a2 2 0 0 0-.888-1.656 1.4 1.4 0 0 1-.646-1.19v-7.612a4.87 4.87 0 0 1 4.863-4.865zM2.08 44.122a5.71 5.71 0 0 0-2.08 4.4v5.2a2 2 0 0 0 4 0v-5.2a1.72 1.72 0 0 1 .606-1.312c3.234-2.594 6.733-4.84 10.44-6.7.805-.4 1.315-1.206 1.312-2.1v-7.33a2 2 0 0 0-.888-1.656 1.4 1.4 0 0 1-.646-1.19V20.62a4.85 4.85 0 0 1 4.846-4.846h1.63a4.85 4.85 0 0 1 4.846 4.846v7.612a1.42 1.42 0 0 1-.646 1.19 1.95 1.95 0 0 0-.888 1.656v3.675a2 2 0 1 0 4 0v-2.746c.982-1.012 1.533-2.366 1.535-3.776v-7.6c-.004-4.885-3.963-8.843-8.847-8.847h-1.633c-4.882.005-8.838 3.962-8.844 8.844v7.612a5.45 5.45 0 0 0 1.535 3.776v5.4A63.74 63.74 0 0 0 2.08 44.122zM73.54 55.73a1.99 1.99 0 0 0 2-2v-6.744a6.71 6.71 0 0 0-2.463-5.23c-4.198-3.387-8.73-6.335-13.528-8.8v-7.592a6.45 6.45 0 0 0 1.98-4.644v-9.854A10.88 10.88 0 0 0 50.665 0h-2.12a10.88 10.88 0 0 0-10.863 10.863v9.854a6.44 6.44 0 0 0 1.98 4.644v7.6a79.25 79.25 0 0 0-13.528 8.8 6.72 6.72 0 0 0-2.463 5.23v6.744a2 2 0 1 0 4 0v-6.745a2.75 2.75 0 0 1 1.01-2.14 76.31 76.31 0 0 1 13.63-8.743 2.41 2.41 0 0 0 1.373-2.18v-9.5a2 2 0 0 0-.888-1.656 2.44 2.44 0 0 1-1.09-2.039v-9.854c.004-3.8 3.075-6.86 6.865-6.865h2.12c3.8.004 6.86 3.075 6.865 6.865v9.854a2.45 2.45 0 0 1-1.1 2.04c-.56.364-.894 1-.888 1.656v9.5a2.46 2.46 0 0 0 1.373 2.2 76.31 76.31 0 0 1 13.63 8.743 2.75 2.75 0 0 1 1.01 2.14v6.75a1.93 1.93 0 0 0 1.951 1.979z"/>
    </symbol>
    <symbol id="contact" viewBox="0 0 511.874 511.874">
        <path d="M490.114 12.813H132.568a21.79 21.79 0 0 0-21.76 21.76v98.62l-16.35-24.525c-7.484-11.3-22.535-14.676-34.133-7.68l-33.638 20.224a49.39 49.39 0 0 0-22.545 29.244C-8.13 195.137.976 272.116 113.966 385.123 203.82 474.885 270.816 499.06 317 499.06a119.13 119.13 0 0 0 31.66-4.13 49.44 49.44 0 0 0 29.252-22.519l20.198-33.673a25.29 25.29 0 0 0-7.68-34.091l-80.546-53.692c-11.05-7.308-25.86-4.905-34.03 5.52l-23.45 30.148c-2.45 3.226-6.897 4.166-10.445 2.2l-4.463-2.458c-14.686-8.004-32.964-17.97-69.88-54.886l-11.008-11.307h333.517c11.982.01 21.713-9.676 21.76-21.658V34.573a21.79 21.79 0 0 0-21.76-21.76zm-260.796 388.55l4.335 2.38a25.14 25.14 0 0 0 32.213-6.639l23.45-30.148c2.666-3.396 7.5-4.18 11.093-1.8l80.546 53.692a8.24 8.24 0 0 1 2.5 11.093l-20.198 33.673a32.42 32.42 0 0 1-19.123 14.848c-40.337 11.093-110.933 1.707-218.078-105.446S9.56 195.273 20.627 154.97a32.43 32.43 0 0 1 14.839-19.123L69.14 115.64c3.773-2.254 8.652-1.155 11.093 2.5l53.717 80.546c2.382 3.602 1.6 8.43-1.8 11.093l-30.157 23.458c-9.903 7.597-12.73 21.3-6.64 32.205l2.4 4.335c8.533 15.65 19.14 35.123 57.805 73.78s58.13 49.272 73.772 57.806zm265.5-102.836a4.66 4.66 0 0 1-4.693 4.608H141.203c-11.083-12.674-20.64-26.604-28.476-41.506l-2.458-4.48a8.14 8.14 0 0 1 2.202-10.428l30.157-23.458c10.43-8.17 12.833-22.982 5.52-34.03l-20.275-30.43V34.573a4.64 4.64 0 0 1 4.693-4.693h357.547a4.64 4.64 0 0 1 4.693 4.693v263.953zM460.725 52.323l-142.618 108.16a11.51 11.51 0 0 1-13.534 0L162.008 52.323a8.54 8.54 0 0 0-11.959 1.643 8.54 8.54 0 0 0 1.643 11.959l142.583 108.15c10.144 7.494 24 7.494 34.133 0l142.626-108.15a8.53 8.53 0 0 0 1.638-11.963c-2.848-3.75-8.194-4.482-11.947-1.64zm-222.208 122.47l-87.415 93.6c-3.214 3.447-3.025 8.848.422 12.062s8.848 3.025 12.062-.422l87.416-93.653c2.888-3.484 2.553-8.617-.762-11.698s-8.46-3.037-11.723.1zm146.2 0c-3.214-3.447-8.614-3.637-12.062-.422s-3.637 8.614-.422 12.062l87.4 93.6c3.214 3.447 8.614 3.637 12.062.422s3.637-8.614.422-12.062l-87.4-93.6z"/>
    </symbol>
    <symbol id="courses" viewBox="0 0 30.833 30.833">
        <path d="M18.887 5.757v9.804l-1.28-.82-1.28 1.685V6.017l-1.077.108-.313-.215 14.78-1.604-.018-.166-14.972 1.626-.26-.178 14.95-1.635-.018-.165-15.143 1.655-.287-.197 15.183-1.68-.02-.165-15.375 1.7-.32-.22 15.377-1.7-.018-.165-15.568 1.732-.348-.24.498-.05 15.82-1.72-.58-.818-17.3 1.833V11.1c-.8-.247-2.13-.523-4.154-.545-3.74-.04-5.722 2.058-6.02 2.682-.16.335-.128.695.098 1.07.3.52.634.546.975.573.324.026.7.057 1.253.488.907.696.787 1.943.715 2.37H0V22.3h8.662v-4.56H4.554c.086-.542.17-1.864-.863-2.657-.648-.498-1.1-.536-1.444-.563-.32-.025-.48-.04-.695-.397-.16-.268-.188-.506-.082-.725.214-.448 2.38-2.68 5.843-2.488 1.897.105 3.207.385 4.005.618v15.17l3.134 2.2v.02l16.377-1.662.004-22.716-11.946 1.2zM4.345 18.755c.34 0 .615.275.615.615v1.6c0 .34-.275.615-.615.615h-.03c-.34 0-.614-.275-.614-.615v-1.6c0-.34.274-.615.614-.615h.03zM0 24.7c0 2.337 1.895 4.232 4.232 4.232h.197c2.338 0 4.232-1.896 4.232-4.232v-2.148H0V24.7z"/>
    </symbol>
    <symbol id="diplomas" viewBox="0 0 40.444 39">
        <path d="M23.833 28.166a3.611 3.611 0 1 1-3.611-3.611 3.611 3.611 0 0 1 3.611 3.611zm2.227 7.46a.722.722 0 0 1 .495-.415l3.575-.854-2.593-3.1-.046.094q-.14.32-.307.625l-.145.254-.314.484-.24.325-.3.36-.345.367-.505.476c-.08.067-.155.112-.23.17l-.1.092-.217.148-.294.2-.64.37-.237.112-.6.254-.16.06a7.61 7.61 0 0 1-.838.243h-.02l2.594 3.1zm-7.193-1.106a6.574 6.574 0 0 0 1 .132h.01l.343.014.343-.014h.01a6.518 6.518 0 0 0 1.005-.132l.058-.01.387-.1.15-.044.278-.1.246-.093.173-.077.33-.158.08-.043.4-.232.01-.005q.216-.14.43-.3a4.89 4.89 0 0 0 .423-.357q.245-.218.467-.46l.173-.183a6.442 6.442 0 0 0 .549-.753l.072-.123a6.271 6.271 0 0 0 .4-.794l.032-.072a6.477 6.477 0 0 0 .307-.973c0-.012.01-.023.014-.035a6.5 6.5 0 1 0-12.676 0c0 .013.01.023.014.036a6.487 6.487 0 0 0 .307.974l.03.072a6.381 6.381 0 0 0 .4.8l.072.12a6.328 6.328 0 0 0 .55.753l.175.186a6.473 6.473 0 0 0 .462.456l.425.358a6.6 6.6 0 0 0 .852.544l.058.032.35.168.157.072.258.1.268.093.158.046.38.1zm-3.7-6.355a5.056 5.056 0 1 1 5.056 5.056 5.055 5.055 0 0 1-5.056-5.053zm-.78 7.46L15.848 39l2.594-3.1h-.007a7.879 7.879 0 0 1-.835-.242l-.17-.065q-.3-.1-.58-.247l-.25-.12-.63-.36-.314-.217-.2-.14c-.036-.026-.066-.06-.1-.086l-.236-.176c-.076-.064-.152-.145-.23-.216l-.274-.26q-.18-.18-.347-.37l-.3-.36-.24-.325q-.167-.237-.315-.485l-.147-.23a6.28 6.28 0 0 1-.308-.627c-.014-.032-.032-.06-.046-.092l-2.593 3.1 3.575.854a.721.721 0 0 1 .491.409zm26.057-8.18V0H0v27.444h12.314a7.94 7.94 0 0 1 15.817 0zm-5.056-26h2.9a.722.722 0 0 1 .723.723v2.9h-1.444V2.9H35.4zm0 23.1h2.167V22.4H39v2.9a.722.722 0 0 1-.722.722h-2.9zM11.556 6.5H28.9v1.444H11.556zM5.056 26h-2.9a.722.722 0 0 1-.722-.722v-2.9H2.9v2.167h2.167zm0-23.1H2.9v2.167H1.444v-2.9a.722.722 0 0 1 .722-.722h2.9zm2.167 9.4v-1.445h26V12.3zm0 0"/>
    </symbol>
    <symbol id="duration" viewBox="0 0 60 60">
        <path d="M54 58h-3v-4h-5V43.778a8.03 8.03 0 0 0-3.6-6.706L31.803 30l10.608-7.072C44.658 21.43 46 18.922 46 16.222V6h5V2h3a1 1 0 1 0 0-2H6a1 1 0 1 0 0 2h3v4h5v10.222a8.03 8.03 0 0 0 3.6 6.706L28.197 30 17.6 37.072c-2.248 1.498-3.6 4.006-3.6 6.706V54H9v4H6a1 1 0 1 0 0 2h48a1 1 0 1 0 0-2zM11 4V2h38v2H11zm7.698 17.264A6.05 6.05 0 0 1 16 16.222V6h28v10.222a6.05 6.05 0 0 1-2.698 5.042L30 28.798l-11.302-7.534zM16 43.778a6.05 6.05 0 0 1 2.698-5.042L30 31.202l11.302 7.534A6.05 6.05 0 0 1 44 43.778V54H16V43.778zM11 56h38v2H11v-2zm9.917-38.064c-.574-.383-.917-1.024-.917-1.714V14a1 1 0 1 0-2 0v2.222a4.05 4.05 0 0 0 1.808 3.378l4.638 3.092a1 1 0 1 0 1.11-1.664l-4.64-3.092zM40.192 41.26l-4.638-3.092a1 1 0 1 0-1.11 1.664l4.638 3.092c.575.383.918 1.023.918 1.714v2.222a1 1 0 1 0 2 0v-2.222a4.05 4.05 0 0 0-1.808-3.378z"/>
    </symbol>
    
    <symbol id="hour" viewBox="0 0 60 60">
       <path d="M30 0C13.458 0 0 13.458 0 30s13.458 30 30 30 30-13.458 30-30S46.542 0 30 0zm0 58C14.56 58 2 45.44 2 30S14.56 2 30 2s28 12.56 28 28-12.56 28-28 28zm0-52a1 1 0 0 0-1 1v23H14a1 1 0 1 0 0 2h16a1 1 0 0 0 1-1V7a1 1 0 0 0-1-1z"/>
    </symbol>
    <symbol id="inhouse"  viewBox="0 0 512 512">
       <path d="M125.614 201.836c-33.182 0-60.178 26.995-60.178 60.178s26.996 60.178 60.178 60.178 60.178-26.995 60.178-60.178-26.995-60.178-60.178-60.178zm0 90.268c-16.592 0-30.1-13.498-30.1-30.1s13.498-30.1 30.1-30.1 30.1 13.498 30.1 30.1-13.498 30.1-30.1 30.1zM267.05 217.2h60.17v30.1h-60.17zm90.25 0h60.17v30.1H357.3zm-90.25 60.18h60.17v30.1h-60.17zm90.25 0h60.17v30.1H357.3zM267.05 98.23h60.17v30.1h-60.17zm90.25 0h60.17v30.1H357.3zm-90.25 60.17h60.17v30.1h-60.17zm90.25 0h60.17v30.1H357.3zm94.287-128.26V0H230.934v30.293h-61.18v114.374c-13.737-5.184-28.6-8.03-44.14-8.03C56.482 136.638.238 192.882.238 262.015c0 28.318 18.695 74.747 57.153 141.938C84.945 452.1 112.893 493.3 113.17 493.7L125.6 512l12.44-18.3c.224-.33 18.387-27.106 39.838-62.65h333.87V30.344l-60.174-.204zM125.614 458.013c-34.842-53.693-95.3-155.3-95.3-196 0-52.543 42.746-95.3 95.3-95.3s95.3 42.746 95.3 95.3c0 40.7-60.446 142.306-95.3 196zm356.06-57.05h-124.36v-62.186h-30.087v62.186h-131.69c37.3-65.572 55.454-111.053 55.454-138.948 0-41.376-20.152-78.13-51.15-100.977V60.38h61.18V30.088H421.5v30.037l60.174.205v340.632z"/>
    </symbol>
    <symbol id="mission" viewBox="0 0 85.333 75.333">
        <path d="M84.937 71.385L67 43.142a2.72 2.72 0 0 0-4.555 0l-2.33 3.667a1.19 1.19 0 0 0 .41 1.669c.588.35 1.348.174 1.722-.4l2.33-3.667c.032-.05.086-.08.145-.08s.113.03.145.08L82.8 72.656c.035.05.035.117 0 .167-.03.055-.087.088-.15.084h-9.924L44.944 29.163c-.246-.387-.588-.703-.993-.917v-8.23a11.92 11.92 0 0 0 3.05.391 24.21 24.21 0 0 0 8.145-1.9c3.625-1.3 7.048-2.535 10.75-1.1a1.59 1.59 0 0 0 1.443-.15c.423-.272.68-.74.682-1.243v-13.7A1.5 1.5 0 0 0 67.08.931c-4.7-1.942-8.82-.46-12.806.973-3.733 1.342-7.26 2.6-11.1.948-.388-.168-.834-.134-1.192.1a1.2 1.2 0 0 0-.571 1.018v.045c-.022.092-.034.186-.034.28v23.962c-.405.214-.747.53-.992.916L27.2 49.93l-4.31-6.79a2.72 2.72 0 0 0-4.555 0L.4 71.385c-.507.795-.53 1.805-.057 2.62a2.69 2.69 0 0 0 2.334 1.327H82.66a2.69 2.69 0 0 0 2.334-1.327c.472-.816.45-1.827-.057-2.62zM43.92 5.677c4.053 1.077 7.693-.232 11.228-1.5 3.5-1.258 6.81-2.45 10.372-1.234v11.784c-4.065-1.08-7.71.23-11.244 1.5-3.492 1.256-6.8 2.446-10.357 1.235zm-28.372 67.23l4.3-6.763a1.19 1.19 0 0 0-.41-1.669c-.588-.35-1.348-.174-1.722.4l-5.1 8.034h-9.94c-.062.004-.12-.03-.15-.084-.035-.05-.035-.117 0-.167l17.94-28.244c.032-.05.086-.08.145-.08s.113.03.145.08l4.974 7.832-4.967 7.82a1.19 1.19 0 0 0 .41 1.669c.588.35 1.35.174 1.722-.4l19.626-30.9c.032-.05.086-.08.145-.08s.113.03.145.08l26.976 42.472z" fill="#f3f3f3"/>
    </symbol>
    <symbol id="money" viewBox="0 0 28.333 28.333">
        <path d="M4.708 25.175c-.187-.187-.48-.215-.698-.07s-.305.428-.204.67.36.382.62.33.445-.28.445-.542a.6.6 0 0 0-.162-.4zm21.276-15.052a.55.55 0 0 0-.899.604.55.55 0 0 0 .618.329.55.55 0 0 0 .443-.542.6.6 0 0 0-.163-.4zM28.17.162A.55.55 0 0 0 27.78 0H14.166a.55.55 0 0 0-.39.162c-.103.104-.162.244-.162.4v1.584L8.367 3.542a.55.55 0 0 0-.336.258c-.073.128-.093.278-.055.42l2.717 10.146-2.35 2.352a1.66 1.66 0 0 0-1.37-.724H1.66A1.66 1.66 0 0 0 0 17.654v9.02a1.66 1.66 0 0 0 1.66 1.66h5.312a1.66 1.66 0 0 0 1.61-1.26l.658.574a2.79 2.79 0 0 0 1.833.687h16.7a.55.55 0 0 0 .39-.162c.103-.104.162-.244.162-.4V.553a.55.55 0 0 0-.157-.39zM7.526 26.673c-.001.305-.248.552-.553.553H1.66c-.305-.001-.552-.248-.553-.553v-9.02c.001-.305.248-.552.553-.553h2.1v6.375c0 .306.248.554.553.554s.554-.248.554-.554V17.1h2.1c.305.001.552.248.553.553v9.02zM9.193 4.468l4.42-1.186v2.05l-.37.1a.55.55 0 0 0-.336.258c-.073.128-.093.278-.055.42a1.49 1.49 0 0 1-1.058 1.824.55.55 0 0 0-.39.678l2.16 7.986h-1.1l-.572-2.24a.56.56 0 0 0-.093-.194zm4.425 3.4v4.67L12.603 8.8a2.59 2.59 0 0 0 1.01-.929zm7.95 19.356H11.074a1.68 1.68 0 0 1-1.105-.414l-1.336-1.163v-7.654l2.416-2.416.438 1.714c.063.245.283.416.536.416h10.88c.417.015.747.357.747.775s-.33.76-.747.774h-5.575c-.306 0-.553.248-.553.554s.248.554.553.554h7.307c.417.015.747.357.747.775s-.33.76-.747.774h-7.307c-.306 0-.553.248-.553.554s.248.554.553.554h6.123c.283-.01.55.135.694.38s.145.547 0 .8-.4.4-.694.38h-6.123c-.306 0-.553.248-.553.553s.248.554.553.554h4.235c.283-.01.55.135.694.38s.145.547 0 .8-.4.4-.694.38zm5.663 0h-3.954a1.88 1.88 0 0 0 0-1.55h.174a1.88 1.88 0 0 0 1.682-2.724 1.88 1.88 0 0 0 1.012-2.935V13c0-.306-.248-.554-.553-.554s-.554.248-.554.554v6.3a1.88 1.88 0 0 0-.4-.044h-.018a1.88 1.88 0 0 0-1.718-2.656h-.9a2.65 2.65 0 1 0-2.081 0h-3.024V6.08a2.6 2.6 0 0 0 1.986-1.98h4.163a2.6 2.6 0 0 0 1.982 1.98V7.8c0 .306.248.554.554.554s.553-.248.553-.554V5.586a.55.55 0 0 0-.162-.39c-.104-.103-.244-.162-.4-.162a1.49 1.49 0 0 1-1.49-1.49.55.55 0 0 0-.162-.39C23.827 3.05 23.696 3 23.55 3h-5.156c-.305 0-.553.248-.553.553a1.49 1.49 0 0 1-1.49 1.49.55.55 0 0 0-.39.162c-.103.104-.162.244-.162.4V16.6h-1.08V1.107h12.506zm-6.258-11.516a1.54 1.54 0 1 1 1.542-1.542c-.001.85-.7 1.54-1.542 1.542z"/>
    </symbol>
    <symbol id="searching" viewBox="0 0 446.25 446.25">
        <path d="M318.75 280.5h-20.4l-7.65-7.65c25.5-28.05 40.8-66.3 40.8-107.1C331.5 73.95 257.55 0 165.75 0S0 73.95 0 165.75 73.95 331.5 165.75 331.5c40.8 0 79.05-15.3 107.1-40.8l7.65 7.65v20.4L408 446.25 446.25 408l-127.5-127.5zm-153 0C102 280.5 51 229.5 51 165.75S102 51 165.75 51 280.5 102 280.5 165.75s-51 114.75-114.75 114.75z"/>
    </symbol>
    <symbol id="slick-next" viewBox="0 0 16.257 24.879">
        <path d="M2.073 2.468c.85.394 11.76 9.768 11.76 9.768L2.786 22.803" fill="none" stroke="#666" stroke-linecap="round" stroke-linejoin="round" stroke-width="3.998"/>
    </symbol>
    <symbol id="slick-prev" viewBox="0 0 15.416 24.356">
        <path d="M13.416 22.356C12.58 21.932 2 12.178 2 12.178L13.416 2" fill="none" stroke="#666" stroke-linecap="round" stroke-linejoin="round" stroke-width="4"/>
    </symbol>
    <symbol id="values" viewBox="0 0 60.341 46.333">
        <path d="M60.06 12.8L48.356.673a.94.94 0 0 0-1.363 0l-5.85 6.06c-.376.395-.376 1.017 0 1.412l.584.6-1.342 1.397c-.874.902-2.226 1.148-3.362.612-2.373-1.117-5.142-1-7.422.286a6.28 6.28 0 0 0-3.772.208c-1.103.435-2.36.162-3.182-.692l-2.41-2.495.287-.3c.376-.395.376-1.017 0-1.412L14.673.29a.94.94 0 0 0-1.363 0L.282 13.785c-.376.395-.376 1.017 0 1.412l5.85 6.06a.94.94 0 0 0 1.363 0l.35-.36 1.7 1.76a3.09 3.09 0 0 1 .822 1.6c.548 3.103 2.007 5.973 4.192 8.243l.32.33c-1.294 1.43-1.267 3.615.063 5.012a3.4 3.4 0 0 0 2.453 1.051h.173c-.053 1.007.313 1.99 1 2.72.64.672 1.526 1.052 2.453 1.052h.077a3.65 3.65 0 0 0 1.012 2.619c.64.672 1.525 1.052 2.452 1.052s1.814-.38 2.453-1.052l.158-.176c1.18.426 2.498.112 3.358-.8a3.36 3.36 0 0 0 .732-1.163l.1.1c.597.627 1.425.98 2.29.98s1.693-.355 2.3-.98a3.36 3.36 0 0 0 .748-1.206c1.283.97 3.09.824 4.2-.342a3.4 3.4 0 0 0 .949-2.374 3.5 3.5 0 0 0-.091-.794 3.18 3.18 0 0 0 1.639-.916c1.118-1.176 1.264-2.973.35-4.315l.773-.8c2.2-2.296 3.677-5.204 4.2-8.346a2.73 2.73 0 0 1 .736-1.429l2.875-2.978.505.524a.94.94 0 0 0 1.363 0l5.85-6.06c.377-.395.377-1.017 0-1.412zM6.815 19.14l-4.488-4.65L13.99 2.4l4.49 4.65zm11.67 17.293c-.284.298-.678.466-1.09.466s-.805-.17-1.1-.466c-.602-.632-.602-1.626 0-2.258.284-.298.678-.467 1.1-.467s.805.17 1.09.467a1.64 1.64 0 0 1 0 2.258zM22.12 40.2a1.5 1.5 0 0 1-2.179 0 1.64 1.64 0 0 1 0-2.258c.284-.298.678-.467 1.1-.467s.805.17 1.1.467a1.64 1.64 0 0 1-.001 2.258zm3.542 3.67a1.5 1.5 0 0 1-2.179 0 1.64 1.64 0 0 1 0-2.258c.284-.298.678-.467 1.1-.467s.805.17 1.1.467a1.64 1.64 0 0 1 0 2.262zm16.368-7.663a1.28 1.28 0 0 1-1.855 0l-9.35-9.682a.94.94 0 0 0-1.363 0c-.376.395-.376 1.017 0 1.412l10.07 10.43a1.4 1.4 0 0 1 0 1.923c-.242.254-.578.398-.93.398s-.686-.144-.93-.398l-9.547-9.887a.94.94 0 0 0-1.363 0c-.377.395-.377 1.017 0 1.412l7.835 8.115c.5.54.495 1.376-.013 1.91a1.28 1.28 0 0 1-1.855 0l-8.5-8.8a.94.94 0 0 0-1.363 0c-.376.395-.376 1.017 0 1.412l6.305 6.53a1.39 1.39 0 0 1 0 1.921 1.28 1.28 0 0 1-.928.4c-.083-.001-.166-.01-.248-.027a3.67 3.67 0 0 0-.976-3.072c-.64-.672-1.526-1.052-2.453-1.052h-.077a3.65 3.65 0 0 0-1.012-2.619c-.638-.673-1.524-1.055-2.452-1.057q-.087 0-.173 0c.052-1.006-.313-2-1-2.718a3.39 3.39 0 0 0-3.234-.958l-.69-.716a13.85 13.85 0 0 1-3.66-7.2 5.1 5.1 0 0 0-1.353-2.649l-1.7-1.76 9.665-10 2.41 2.495c.91.942 2.166 1.474 3.477 1.472a4.9 4.9 0 0 0 1.726-.315 4.41 4.41 0 0 1 .842-.224l-5.967 6.18c-1.5 1.585-1.5 4.077 0 5.662.713.747 1.7 1.17 2.733 1.17s2.02-.423 2.733-1.17l3-3.1.81.84.034.035.032.034.027.028 11.3 11.7c.512.54.512 1.384 0 1.923zm6.07-14.89a4.74 4.74 0 0 0-1.27 2.488 13.85 13.85 0 0 1-3.676 7.288l-.74.767-6.1-6.315.4.017a4.77 4.77 0 0 0 1.878-.379 1.01 1.01 0 0 0 .527-1.3.95.95 0 0 0-1.257-.546c-2.48 1.05-5.454-1.846-5.785-2.18l-.017-.016-.034-.035-.025-.03-.81-.84.92-.953c.376-.395.376-1.017 0-1.412a.94.94 0 0 0-1.363 0l-5.282 5.466c-.357.375-.852.587-1.37.587s-1.013-.212-1.37-.587a2.06 2.06 0 0 1 0-2.838l6.347-6.574a6.46 6.46 0 0 1 1.167-.957 6.2 6.2 0 0 1 5.987-.391c1.87.878 4.09.468 5.522-1.018l1.342-1.39 7.888 8.17zm5.425-3.16l-10.34-10.7 4.49-4.65 10.34 10.7z"/><g fill="#f3f3f3"><ellipse cx="54.497" cy="14.268" rx=".964" ry=".998"/><ellipse cx="6.314" cy="15.254" rx=".964" ry=".998"/></g>
    </symbol>
    <symbol id="vision" viewBox="0 0 88.624 88.268">
        <path d="M38.478 88.15l-14.955-15.47L55.08 33.623 14.977 63.838.02 48.366l69.39-28.595z"/>
    </symbol>
    <symbol id="whatsapp" viewBox="0 0 512 512">
        <path d="M0 512l35.3-128C12.36 344.276 0 300.138 0 254.234 0 114.76 114.76 0 255.117 0S512 114.76 512 254.234 395.476 512 255.117 512c-44.138 0-86.5-14.124-124.47-35.3L0 512z" fill="#EDEDED"/><path d="M137.7 430.786l7.945 4.414c32.662 20.303 70.62 32.662 110.345 32.662 115.64 0 211.862-96.22 211.862-213.628S371.64 44.138 255.117 44.138 44.138 137.7 44.138 254.234c0 40.607 11.476 80.33 32.662 113.876l5.297 7.945-20.303 74.152 75.916-19.42z" fill="#55CD6C"/><path d="M187.145 135.945l-16.772-.883c-5.297 0-10.593 1.766-14.124 5.297-7.945 7.062-21.186 20.303-24.717 37.96-6.18 26.483 3.53 58.262 26.483 90.04s67.1 82.98 144.772 105.048c24.717 7.062 44.138 2.648 60.028-7.062 12.36-7.945 20.303-20.303 22.952-33.545l2.648-12.36c.883-3.53-.883-7.945-4.414-9.7l-55.614-25.6c-3.53-1.766-7.945-.883-10.593 2.648l-22.07 28.248c-1.766 1.766-4.414 2.648-7.062 1.766-15.007-5.297-65.324-26.483-92.7-79.448-.883-2.648-.883-5.297.883-7.062l21.186-23.834c1.766-2.648 2.648-6.18 1.766-8.828l-25.6-57.38c-.884-2.65-3.532-5.297-7.063-5.297" fill="#FEFEFE"/>
    </symbol>
    <symbol id="close" viewBox="0 0 47.971 47.971">
        <path d="M28.228 23.986L47.092 5.122a3 3 0 0 0 0-4.242 3 3 0 0 0-4.242 0L23.986 19.744 5.12.88a3 3 0 0 0-4.242 0 3 3 0 0 0 0 4.242l18.865 18.864L.88 42.85a3 3 0 0 0 0 4.242c.586.585 1.354.878 2.12.878a2.99 2.99 0 0 0 2.121-.879l18.865-18.864L42.85 47.09a2.99 2.99 0 0 0 4.242 0 3 3 0 0 0 0-4.242L28.228 23.986z"/>
     </symbol>  
     <symbol id="back" viewBox="0 0 480.001 480.001" >
        <path d="M178.5 140.25v-102L0 216.75l178.5 178.5V290.7c127.5 0 216.75 40.8 280.5 130.05-25.5-127.5-102-255-280.5-280.5z"/>
      </symbol> 
    <symbol id="day"  viewBox="0 0 480.001 480.001">
        <path d="M440 32h-16V8a8 8 0 1 0-16 0v24h-64V8a8 8 0 1 0-16 0v24h-64V8a8 8 0 0 0-16 0v24h-64V8a8 8 0 1 0-16 0v24h-64V8a8 8 0 1 0-16 0v24H72c-22.08.026-39.974 17.92-40 40v195.63c-43.437 49.083-42.554 123.1 2.04 171.144a90.44 90.44 0 0 0 7.056 7.064l.072.072h.048c48.02 44.617 122.057 45.52 171.152 2.088H440c22.08-.026 39.974-17.92 40-40v-336c-.027-22.08-17.92-39.973-40-40zM204.46 434.157c-43.063 39.84-109.545 39.797-152.556-.1a78.75 78.75 0 0 1-6.056-6.064c-42.096-45.5-39.336-116.514 6.165-158.6s116.515-39.337 158.612 6.165 39.337 116.514-6.165 158.6zM464 408c0 13.255-10.745 24-24 24H227.84c.976-1.208 1.832-2.496 2.752-3.736l2.52-3.424c1.784-2.568 3.448-5.216 5.032-7.912.464-.8.984-1.528 1.424-2.32a125.27 125.27 0 0 0 5.4-10.792c.416-.936.752-1.904 1.144-2.848 1.16-2.784 2.248-5.6 3.2-8.456.456-1.344.848-2.704 1.248-4.064.8-2.568 1.464-5.16 2.064-7.776l.936-4.304c.528-2.736.952-5.504 1.304-8.288l.496-3.84c.392-4.056.64-8.136.64-12.24-.084-70.658-57.342-127.916-128-128-4.104 0-8.184.248-12.24.64-1.288.128-2.56.336-3.848.496a159.1 159.1 0 0 0-8.28 1.304c-1.448.288-2.88.608-4.312.936-2.608.603-5.187 1.288-7.736 2.056l-4.112 1.256a125.84 125.84 0 0 0-8.304 3.144l-3.016 1.208c-3.648 1.6-7.2 3.4-10.704 5.36-.888.496-1.728 1.072-2.608 1.6-2.584 1.536-5.128 3.128-7.608 4.8-1.224.848-2.4 1.76-3.6 2.648S49.177 251.2 48 252.17V128h416v280zm0-296H48V72c0-13.255 10.745-24 24-24h16v24a8 8 0 1 0 16 0V48h64v24a8 8 0 1 0 16 0V48h64v24a8 8 0 1 0 16 0V48h64v24a8 8 0 1 0 16 0V48h64v24a8 8 0 1 0 16 0V48h16c13.255 0 24 10.745 24 24v40zM128 264a8 8 0 0 0-8 8v72H80a8 8 0 1 0 0 16h48a8 8 0 0 0 8-8v-80a8 8 0 0 0-8-8z"/>
     </symbol> 
      <symbol id="play"  viewBox="0 0 350 350" >
        <path d="M175 0C78.343 0 0 78.343 0 175s78.343 175 175 175 175-78.344 175-175S271.656 0 175 0zm83.738 189.05l-104.386 71.812a17.12 17.12 0 0 1-9.673 3.006c-2.728 0-5.436-.648-7.93-1.95-5.605-2.965-9.125-8.777-9.125-15.103V103.188c0-6.326 3.52-12.14 9.125-15.104 5.605-2.94 12.377-2.535 17.603 1.055l104.386 71.81c4.62 3.18 7.387 8.44 7.387 14.05a17.07 17.07 0 0 1-7.387 14.05z"/>
    </symbol>  
    <symbol id="gallery"  viewBox="0 0 45.964 45.964" >
        <path d="M7.07 30.834V11.062H4.04c-2.237 0-4.04 1.83-4.04 4.068v26.732a4.04 4.04 0 0 0 4.042 4.051h26.733c2.238 0 4.076-1.8 4.076-4.05v-2.92H15.18c-4.446.001-8.108-3.66-8.108-8.108zM41.913.05H15.18c-2.238 0-4.066 1.813-4.066 4.05v26.733A4.08 4.08 0 0 0 15.18 34.9h26.734c2.237 0 4.05-1.826 4.05-4.067V4.102A4.05 4.05 0 0 0 41.913.05zm-.55 28.54a1.26 1.26 0 0 1-1.12.656H17.336c-.403 0-.782-.18-1.022-.502s-.313-.736-.197-1.123l3.277-10.84a1.95 1.95 0 0 1 1.554-1.36c.736-.12 1.476.2 1.908.797l4.582 6.437a1.95 1.95 0 0 0 2.689.484l4.22-2.865a1.95 1.95 0 0 1 2.733.549l4.23 6.472a1.26 1.26 0 0 1 .055 1.295z"/>
     </symbol>   
    <symbol id="prev-arrow"  viewBox="0 0 16.023 26.044" >
        <path   data-name="Path 786" d="M-1094.667,10901.333l-10.023,10.022,10.023,10.022" transform="translate(1107.689 -10898.333)"   stroke="#03050a" stroke-linecap="round" stroke-linejoin="round" stroke-width="6"/>
    </symbol>   
    <symbol id="move-to-next"  viewBox="0 0 46.02 46.02" >
        <path d="M14.757 46.02a5.69 5.69 0 0 1-3.929-1.569c-2.282-2.17-2.373-5.78-.204-8.063L23.382 22.97 10.637 9.645C8.46 7.37 8.54 3.76 10.816 1.582s5.886-2.097 8.063.18l16.505 17.253a5.71 5.71 0 0 1 .013 7.872l-16.504 17.36a5.7 5.7 0 0 1-4.136 1.773z"/>
     </symbol>   
    <symbol id="file"  viewBox="0 0 957.599 957.6" >
        <path d="M817.9 108.4h-28v687.9c0 45.7-37.2 82.898-82.9 82.898H197.7v25.5c0 29.2 23.7 52.9 52.9 52.9h567.2c29.2 0 52.9-23.7 52.9-52.9V161.3c.001-29.2-23.6-52.9-52.8-52.9zM423.3 849.2h283.6c29.2 0 52.9-23.7 52.9-52.898V52.9c0-29.2-23.7-52.9-52.9-52.9H329v17.5c.2 1.8.3 3.7.3 5.6V168c0 41.1-33.4 74.5-74.5 74.5H109.9c-1.5 0-3.1-.1-4.6-.2H86.9v554c0 29.2 23.7 52.898 52.9 52.898h283.5zM434 669.4H249.1c-13.8 0-25-11.2-25-25s11.2-25 25-25h185c13.8 0 25 11.2 25 25s-11.3 25-25.1 25zm185-127.6H249.1c-13.8 0-25-11.2-25-25s11.2-25 25-25H619c13.8 0 25 11.2 25 25s-11.2 25-25 25zM249.1 356.3H619c13.8 0 25 11.2 25 25s-11.2 25-25 25H249.1c-13.8 0-25-11.2-25-25s11.2-25 25-25zM109.9 212.5h145.3c24.2-.2 43.8-19.8 44-44V23.1c0-13.4-11-22.3-22.4-22.3-5.5 0-11 2-15.6 6.6L94.1 174.5c-14 14-4.1 38 15.8 38z"/>
    </symbol>   
    <symbol id="figure-circle"  viewBox="0 0 1366 50" >
        <path   d="M0,0S338.833,50,680.333,50,1366,0,1366,0V50H0Z" fill="#fff"/>
    </symbol>   
    <symbol id="wallet"  viewBox="0 0 334.877 334.877" >
        <path d="M333.196 156H317.13V82.1c0-17.72-14.415-32.134-32.134-32.134h-21.76l-22.27-40.04A19.28 19.28 0 0 0 224.107 0c-3.265 0-6.504.842-9.364 2.43L129.28 49.955H33.815C16.096 49.955 1.68 64.37 1.68 82.09v220.653c0 17.72 14.415 32.134 32.134 32.134h251.18c17.72 0 32.134-14.415 32.134-32.134V237.94h16.067V156zm-48.2-93.2c9.897 0 17.982 7.52 19.068 17.14H279.91l-9.525-17.14h14.61zm-64-49.146c3.014-1.7 7.07-.508 8.734 2.494l35.476 63.786H101.798l119.198-66.28zm83.28 289.08c0 10.63-8.65 19.28-19.28 19.28H33.815c-10.63 0-19.28-8.65-19.28-19.28V82.1c0-10.63 8.65-19.28 19.28-19.28h72.353L75.345 79.95H37.832c-3.554 0-6.427 2.88-6.427 6.427s2.873 6.427 6.427 6.427h266.443v63.2h-47c-21.826 0-39.59 17.764-39.59 39.59v2.764c0 21.826 17.764 39.59 39.59 39.59h47v64.795zm16.067-77.655h-63.066c-14.743 0-26.736-11.992-26.736-26.736v-2.764c0-14.743 11.992-26.736 26.736-26.736h63.066v56.236zm-43.38-27.6a14.19 14.19 0 1 1-28.38 0 14.19 14.19 0 1 1 28.38 0z"/>
    </symbol>   
     <symbol id="book" viewBox="0 0 60 60">
        <path d="M13 0c-1.547 0-3.033.662-4.078 1.817A5.52 5.52 0 0 0 7.525 6H7.5v48.958A5.05 5.05 0 0 0 12.542 60H52.5V0H13zM9.5 54.958V9.998c.836.63 1.875 1.002 3 1.002v46.996c-1.658-.023-3-1.375-3-3.038zM50.5 58h-36V11h3v25.2c0 .682.44 1.262 1.1 1.444a1.56 1.56 0 0 0 .408.056c.015 0 .03-.005.044-.006.045-.001.088-.012.133-.017a1.44 1.44 0 0 0 .299-.066c.048-.016.093-.035.138-.056a1.44 1.44 0 0 0 .263-.159l.106-.08c.11-.1.212-.21.292-.346l4.217-7.028 4.217 7.03a1.47 1.47 0 0 0 1.55.687c.045-.008.09-.002.134-.014.657-.183 1.1-.763 1.1-1.444V11h19v47zM29.64 9.483l-.003.007-.137.274v.042l-.1.23.1.152V34.4l-5-8.333-5 8.333V10.236L21.118 7h9.764L29.64 9.483zM32.118 9l2-4H19.882l-2 4h-4.67C11.318 9 9.696 7.62 9.52 5.86a3.46 3.46 0 0 1 .887-2.701C11.07 2.422 12.017 2 13 2h37.5v1h-5a1 1 0 1 0 0 2h5v1h-4a1 1 0 1 0 0 2h4v1H32.118z"/>
     </symbol> 
    <symbol id="diplomado" viewBox="0 0 512 512">
        <path d="M366.555 137.336a8.42 8.42 0 0 0-11.167-4.115 8.42 8.42 0 0 0-4.115 11.168c6.37 13.8 9.6 28.568 9.6 43.897 0 57.827-47.045 104.872-104.87 104.872S151.13 246.113 151.13 188.286 198.174 83.414 256 83.414c29.573 0 57.924 12.585 77.78 34.528a8.42 8.42 0 0 0 11.888.594 8.42 8.42 0 0 0 .592-11.888C323.22 81.186 290.32 66.583 256 66.583c-67.108 0-121.704 54.596-121.704 121.704S188.893 310 256 310s121.703-54.596 121.703-121.704c-.001-17.782-3.752-34.925-11.15-50.95zm57.528 50.95c0-6.442 2.82-13.903 5.806-21.802 4.508-11.925 9.17-24.257 5.228-36.393-4.106-12.644-15.903-20.33-26.3-27.112-6.836-4.454-13.294-8.66-16.812-13.495-3.593-4.937-5.636-12.456-7.8-20.416-3.235-11.905-6.902-25.398-17.505-33.114-10.496-7.638-23.794-7-36.652-6.405-8.306.392-16.15.762-22.08-1.164-5.52-1.792-11.42-6.562-17.667-11.612C280.56 8.913 269.533 0 256 0s-24.56 8.913-34.3 16.777c-6.247 5.05-12.148 9.82-17.665 11.6-5.93 1.926-13.776 1.555-22.082 1.164-12.858-.607-26.157-1.234-36.653 6.405-10.603 7.716-14.27 21.2-17.505 33.114-2.163 7.96-4.207 15.48-7.8 20.416-3.518 4.834-9.976 9.04-16.812 13.495-10.4 6.78-22.206 14.467-26.3 27.1-3.94 12.136.72 24.468 5.228 36.394 2.985 7.9 5.805 15.36 5.805 21.802s-2.82 13.903-5.806 21.802c-4.508 11.926-9.17 24.258-5.228 36.394 4.106 12.643 15.903 20.33 26.3 27.1 6.836 4.454 13.294 8.66 16.812 13.495 3.593 4.937 5.636 12.457 7.8 20.416 3.235 11.905 6.902 25.398 17.505 33.114 10.495 7.638 23.793 7 36.652 6.405 8.305-.393 16.15-.762 22.08 1.164 5.52 1.792 11.42 6.562 17.668 11.612 4.7 3.8 9.7 7.836 15.153 11.002L204.6 486.54l-29.778-33.184a8.42 8.42 0 0 0-8.717-2.431l-42.635 12.992 26.73-95.86a8.42 8.42 0 0 0-5.846-10.367 8.42 8.42 0 0 0-10.367 5.846L103.132 474.18c-.825 2.96.028 6.135 2.227 8.282a8.42 8.42 0 0 0 8.333 2.03l52.184-15.902 36.443 40.613c1.616 1.8 3.904 2.796 6.264 2.795.637 0 1.28-.072 1.917-.22a8.42 8.42 0 0 0 6.191-5.935l36.088-129.46a30.78 30.78 0 0 0 3.219.187c1.088 0 2.156-.077 3.213-.187l36.103 129.46a8.42 8.42 0 0 0 6.191 5.935 8.44 8.44 0 0 0 1.915.22 8.42 8.42 0 0 0 6.265-2.796l36.43-40.613 52.195 15.9a8.42 8.42 0 0 0 10.559-10.31l-38.214-137.05c7.617-7.905 10.742-19.355 13.534-29.63 2.163-7.96 4.207-15.48 7.8-20.416 3.518-4.834 9.976-9.04 16.812-13.495 10.4-6.78 22.206-14.467 26.3-27.1 3.94-12.136-.72-24.468-5.228-36.394-2.983-7.897-5.802-15.357-5.802-21.8zm-35.545 275.632L345.9 450.926c-3.13-.956-6.532-.006-8.718 2.43l-29.766 33.183L275.13 370.8c5.446-3.167 10.456-7.204 15.16-11.006 6.247-5.05 12.148-9.818 17.667-11.612 5.932-1.926 13.777-1.555 22.082-1.164 8.648.408 17.5.814 25.55-1.28l32.952 118.18zm30.57-222.633c-2.268 6.985-10.633 12.435-19.5 18.205-7.812 5.1-15.9 10.353-21.233 17.694-5.415 7.44-7.967 16.828-10.433 25.906-2.75 10.124-5.35 19.685-11.166 23.92-5.712 4.155-15.544 3.692-25.956 3.2-9.448-.444-19.22-.907-28.073 1.968-8.48 2.754-15.886 8.74-23.05 14.53-8.294 6.704-16.126 13.034-23.707 13.034s-15.415-6.332-23.708-13.036c-7.162-5.8-14.57-11.777-23.05-14.53-5.584-1.813-11.533-2.3-17.535-2.3-3.514 0-7.048.166-10.537.33-10.4.492-20.243.955-25.955-3.2-5.816-4.233-8.415-13.795-11.166-23.92-2.466-9.078-5.018-18.466-10.433-25.906-5.34-7.34-13.42-12.603-21.233-17.694-8.857-5.77-17.222-11.22-19.5-18.206-2.115-6.514 1.324-15.612 4.964-25.243 3.4-8.966 6.893-18.236 6.893-27.752s-3.504-18.788-6.892-27.752c-3.64-9.63-7.08-18.73-4.964-25.244 2.268-6.985 10.633-12.435 19.5-18.205 7.812-5.1 15.9-10.353 21.233-17.692 5.415-7.44 7.967-16.828 10.433-25.906 2.75-10.124 5.35-19.685 11.166-23.92 5.7-4.156 15.546-3.693 25.956-3.2 9.447.445 19.22.907 28.073-1.968 8.48-2.754 15.886-8.74 23.05-14.53 8.292-6.706 16.126-13.038 23.706-13.038s15.415 6.332 23.707 13.034c7.162 5.8 14.57 11.777 23.05 14.53 8.854 2.875 18.623 2.415 28.072 1.968 10.4-.5 20.244-.954 25.955 3.2 5.816 4.233 8.415 13.795 11.166 23.92 2.466 9.078 5.018 18.466 10.433 25.906 5.34 7.34 13.42 12.603 21.232 17.692 8.857 5.77 17.222 11.22 19.5 18.206 2.115 6.515-1.323 15.612-4.964 25.244-3.4 8.965-6.893 18.236-6.893 27.752s3.506 18.786 6.895 27.752c3.64 9.632 7.08 18.73 4.963 25.247z"/><use xlink:href="#B"/><use xlink:href="#B" y="87.85"/><path d="M311.8 179.87h-25.35a8.42 8.42 0 0 0-8.416 8.416 8.42 8.42 0 0 0 8.416 8.416h25.35a8.42 8.42 0 0 0 8.416-8.416 8.42 8.42 0 0 0-8.416-8.416zm-51.706 0H200.2a8.42 8.42 0 0 0-8.416 8.416 8.42 8.42 0 0 0 8.416 8.416h59.914a8.42 8.42 0 0 0 8.416-8.416 8.42 8.42 0 0 0-8.416-8.416z"/><defs ><path id="B" d="M288.506 135.945h-65a8.42 8.42 0 0 0-8.416 8.416 8.42 8.42 0 0 0 8.416 8.416h65a8.42 8.42 0 0 0 8.416-8.416 8.42 8.42 0 0 0-8.416-8.416z"/></defs>
    </symbol>
   
   
</svg>